<?xml version="1.0" encoding="UTF-8" standalone="no"?>
<!DOCTYPE svg PUBLIC "-//W3C//DTD SVG 1.1//EN" "http://www.w3.org/Graphics/SVG/1.1/DTD/svg11.dtd">
<svg width="100%" height="100%" viewBox="0 0 16 16" version="1.1" xmlns="http://www.w3.org/2000/svg" xmlns:xlink="http://www.w3.org/1999/xlink" xml:space="preserve" xmlns:serif="http://www.serif.com/" style="fill-rule:evenodd;clip-rule:evenodd;stroke-linejoin:round;stroke-miterlimit:2;">
    <g transform="matrix(1,0,0,1,-140,-24)">
        <g id="node_colors">
        </g>
        <g id="auto_interpolate">
        </g>
        <g id="smooth_2d">
        </g>
        <g id="smooth_3d">
        </g>
        <g id="radial_impulse2d">
        </g>
        <g id="radial_impulse3d">
        </g>
        <g id="expandable_panel">
        </g>
        <g id="spin_slider">
        </g>
        <g id="zoom_in">
        </g>
        <g id="zoom_out">
        </g>
        <g id="zoom_reset">
        </g>
        <g id="grid_toggle">
        </g>
        <g id="snap_toggle">
        </g>
        <g id="updown">
        </g>
        <g id="scroll_up">
        </g>
        <g id="scroll_down">
        </g>
        <g id="scroll_right">
        </g>
        <g id="scroll_left">
        </g>
        <g id="accordion">
            <g transform="matrix(1.16667,0,0,0.75,-25.8333,5.5)">
                <path d="M155,27C155,26.448 154.712,26 154.357,26L143.643,26C143.288,26 143,26.448 143,27L143,29C143,29.552 143.288,30 143.643,30L154.357,30C154.712,30 155,29.552 155,29L155,27Z" style="fill:rgb(142,239,151);"/>
            </g>
            <g transform="matrix(1.16667,0,0,0.75,-25.8333,16.5)">
                <path d="M155,27C155,26.448 154.712,26 154.357,26L143.643,26C143.288,26 143,26.448 143,27L143,29C143,29.552 143.288,30 143.643,30L154.357,30C154.712,30 155,29.552 155,29L155,27Z" style="fill:rgb(142,239,151);"/>
            </g>
            <g transform="matrix(1.16667,0,0,0.75,-25.8333,13)">
                <path d="M155,27C155,26.448 154.712,26 154.357,26L143.643,26C143.288,26 143,26.448 143,27L143,29C143,29.552 143.288,30 143.643,30L154.357,30C154.712,30 155,29.552 155,29L155,27Z" style="fill:rgb(142,239,151);"/>
            </g>
            <rect x="142" y="29" width="12" height="2" style="fill:rgb(142,239,151);"/>
        </g>
        <g id="accordion_item">
        </g>
    </g>
</svg>
