<?xml version="1.0" encoding="UTF-8" standalone="no"?>
<!DOCTYPE svg PUBLIC "-//W3C//DTD SVG 1.1//EN" "http://www.w3.org/Graphics/SVG/1.1/DTD/svg11.dtd">
<svg width="100%" height="100%" viewBox="0 0 16 16" version="1.1" xmlns="http://www.w3.org/2000/svg" xmlns:xlink="http://www.w3.org/1999/xlink" xml:space="preserve" xmlns:serif="http://www.serif.com/" style="fill-rule:evenodd;clip-rule:evenodd;stroke-linecap:round;stroke-miterlimit:10;">
    <g transform="matrix(1,0,0,1,-80,-24)">
        <g id="node_colors">
        </g>
        <g id="auto_interpolate">
        </g>
        <g id="smooth_2d">
        </g>
        <g id="smooth_3d">
        </g>
        <g id="radial_impulse2d">
            <g transform="matrix(1,-0,-0,1,80,24)">
                <path d="M-9.089,2.328L-5.637,1.637L-6.328,5.089" style="fill:none;stroke:rgb(141,165,243);stroke-width:1px;"/>
                <path d="M-12,8C-12,8 -7.364,3.364 -5.637,1.637" style="fill:none;stroke:rgb(141,165,243);stroke-width:1px;stroke-miterlimit:1.5;"/>
            </g>
            <g transform="matrix(1,-0,-0,1,80,24)">
                <path d="M-6.328,10.911L-5.637,14.363L-9.089,13.672" style="fill:none;stroke:rgb(141,165,243);stroke-width:1px;"/>
                <path d="M-12,8C-12,8 -7.364,12.636 -5.637,14.363" style="fill:none;stroke:rgb(141,165,243);stroke-width:1px;stroke-miterlimit:1.5;"/>
            </g>
        </g>
        <g id="radial_impulse3d" transform="matrix(1,0,0,1,20,0)">
            <g transform="matrix(4,0,0,4,-266.392,-104)">
                <circle cx="83.598" cy="34" r="1" style="fill:rgb(252,127,127);"/>
            </g>
            <g transform="matrix(1,-0,-0,1,60,24)">
                <path d="M10.911,2.328L14.363,1.637L13.672,5.089" style="fill:none;stroke:rgb(252,127,127);stroke-width:1px;"/>
                <path d="M8,8C8,8 12.636,3.364 14.363,1.637" style="fill:none;stroke:rgb(252,127,127);stroke-width:1px;stroke-miterlimit:1.5;"/>
            </g>
            <g transform="matrix(1,-0,-0,1,60,24)">
                <path d="M13.672,10.911L14.363,14.363L10.911,13.672" style="fill:none;stroke:rgb(252,127,127);stroke-width:1px;"/>
                <path d="M8,8C8,8 12.636,12.636 14.363,14.363" style="fill:none;stroke:rgb(252,127,127);stroke-width:1px;stroke-miterlimit:1.5;"/>
            </g>
            <g transform="matrix(1,-0,-0,1,60,24)">
                <path d="M5.089,13.672L1.637,14.363L2.328,10.911" style="fill:none;stroke:rgb(252,127,127);stroke-width:1px;"/>
                <path d="M8,8C8,8 3.364,12.636 1.637,14.363" style="fill:none;stroke:rgb(252,127,127);stroke-width:1px;stroke-miterlimit:1.5;"/>
            </g>
            <g transform="matrix(1,-0,-0,1,60,24)">
                <path d="M2.328,5.089L1.637,1.637L5.089,2.328" style="fill:none;stroke:rgb(252,127,127);stroke-width:1px;"/>
                <path d="M8,8C8,8 3.364,3.364 1.637,1.637" style="fill:none;stroke:rgb(252,127,127);stroke-width:1px;stroke-miterlimit:1.5;"/>
            </g>
        </g>
    </g>
</svg>
